<?xml version="1.0" encoding="UTF-8"?>
<svg width="500px" height="500px" viewBox="0 0 500 500" version="1.1" xmlns="http://www.w3.org/2000/svg" xmlns:xlink="http://www.w3.org/1999/xlink">
    <!-- Generator: Sketch 61.2 (89653) - https://sketch.com -->
    <title>Artboard@2x</title>
    <desc>Created with Sketch.</desc>
    <defs>
        <circle id="path-1" cx="250" cy="250" r="250"></circle>
    </defs>
    <g id="Artboard" stroke="none" stroke-width="1" fill="none" fill-rule="evenodd">
        <g id="🔷-Shape/Circle">
            <mask id="mask-2" fill="white">
                <use xlink:href="#path-1"></use>
            </mask>
            <use id="Oval" fill="#FFFFFF" fill-rule="evenodd" xlink:href="#path-1"></use>
        </g>
        <g id="Icon/-check-circle" transform="translate(20.000000, 20.000000)" fill="#00BC8B">
            <g id="c-check">
                <path d="M230,0 C102.974508,0 0,102.974508 0,230 C0,357.025492 102.974508,460 230,460 C357.025492,460 460,357.025492 460,230 C459.628948,103.12852 356.87148,0.37105241 230,0 Z M186.521447,321.847697 L119.211875,254.538125 C113.598936,248.925186 113.598936,239.824814 119.211875,234.211875 C124.824814,228.598936 133.925186,228.598936 139.538125,234.211875 L186.875,281.54875 L186.875,281.54875 L320.461875,147.961875 C326.074814,142.348936 335.175186,142.348936 340.788125,147.961875 C346.401064,153.574814 346.401064,162.675186 340.788125,168.288125 L187.228553,321.847697 C187.033291,322.042959 186.716709,322.042959 186.521447,321.847697 Z" id="Shape"></path>
            </g>
        </g>
    </g>
</svg>